<?xml version="1.0" standalone="no"?>
<!DOCTYPE svg PUBLIC "-//W3C//DTD SVG 20010904//EN"
 "http://www.w3.org/TR/2001/REC-SVG-20010904/DTD/svg10.dtd">
<svg version="1.0" xmlns="http://www.w3.org/2000/svg"
 width="180.000000pt" height="60.000000pt" viewBox="0 0 180.000000 60.000000"
 preserveAspectRatio="xMidYMid meet">

<g transform="translate(0.000000,60.000000) scale(0.100000,-0.100000)"
fill="#000000" stroke="none">
<path d="M896 555 c-47 -16 -100 -66 -129 -120 -18 -33 -22 -57 -22 -141 0
-94 2 -103 30 -149 19 -31 49 -61 79 -80 45 -27 57 -30 135 -30 67 0 93 4 118
19 33 20 53 53 53 86 0 25 -1 25 -44 -1 -20 -12 -62 -23 -95 -26 -96 -9 -172
38 -187 116 l-6 29 129 4 c106 3 135 7 163 24 48 27 69 86 52 143 -34 112
-157 169 -276 126z m144 -82 c47 -28 66 -97 34 -124 -10 -8 -56 -14 -134 -17
l-118 -4 8 41 c8 43 48 96 85 111 34 14 95 11 125 -7z"/>
<path d="M1370 561 c-81 -25 -137 -82 -160 -165 -8 -28 -11 -77 -8 -126 6 -99
39 -159 111 -204 133 -82 300 -19 343 130 22 76 16 193 -14 251 -49 95 -168
145 -272 114z m142 -99 c43 -25 68 -86 68 -168 0 -83 -20 -128 -70 -162 -61
-41 -141 -20 -194 52 -18 23 -21 42 -21 121 0 79 3 98 21 122 45 62 126 77
196 35z"/>
<path d="M20 385 l0 -176 38 30 c20 16 86 49 145 71 63 24 124 55 144 73 42
37 72 98 73 145 0 30 -2 32 -35 32 -31 0 -35 -3 -35 -26 0 -14 -7 -41 -16 -60
-16 -34 -69 -65 -196 -115 l-48 -19 0 110 0 110 -35 0 -35 0 0 -175z"/>
<path d="M561 543 c-76 -37 -101 -120 -101 -327 0 -149 9 -176 61 -176 l29 0
1 173 c0 106 5 185 12 207 19 55 82 76 140 46 27 -15 27 -15 27 17 0 18 -4 37
-8 43 -24 36 -105 44 -161 17z"/>
<path d="M135 213 c-65 -34 -115 -100 -115 -152 0 -13 9 -20 31 -23 28 -4 32
-1 46 34 34 84 122 114 193 66 35 -24 44 -36 60 -80 7 -22 16 -28 40 -28 35 0
39 19 15 78 -33 77 -102 122 -187 122 -29 -1 -66 -8 -83 -17z"/>
<path d="M1697 122 c-34 -37 -15 -82 33 -82 49 0 68 51 32 83 -24 22 -45 21
-65 -1z"/>
</g>
</svg>
